<svg width="94" height="92" viewBox="0 0 94 92" fill="none" xmlns="http://www.w3.org/2000/svg">
<path d="M47 0C21.0482 0 0 21.0443 0 47C0 67.7662 13.4655 85.3833 32.1441 91.5991C34.4902 92.0338 35.25 90.5768 35.25 89.3392V80.5893C22.1762 83.4328 19.4541 75.0433 19.4541 75.0433C17.3156 69.6109 14.2332 68.1657 14.2332 68.1657C9.96792 65.2477 14.5583 65.3104 14.5583 65.3104C19.2778 65.6394 21.761 70.1553 21.761 70.1553C25.9518 77.3385 32.7551 75.2627 35.438 74.0602C35.8571 71.0248 37.0752 68.949 38.4225 67.7779C27.9846 66.5833 17.0101 62.5531 17.0101 44.5482C17.0101 39.4134 18.847 35.2226 21.8511 31.9326C21.3654 30.7458 19.7557 25.9636 22.3093 19.4933C22.3093 19.4933 26.2573 18.2321 35.2383 24.3107C38.9865 23.2689 43.005 22.748 47 22.7284C50.995 22.748 55.0174 23.2689 58.7735 24.3107C67.7466 18.2321 71.6868 19.4933 71.6868 19.4933C74.2443 25.9675 72.6346 30.7498 72.1489 31.9326C75.1647 35.2226 76.986 39.4173 76.986 44.5482C76.986 62.6001 65.9919 66.5755 55.5266 67.7388C57.2108 69.1958 58.75 72.0549 58.75 76.4416V89.3392C58.75 90.5886 59.502 92.0573 61.8872 91.5952C80.5502 85.3716 94 67.7583 94 47C94 21.0443 72.9557 0 47 0Z" fill="white"/>
</svg>
